<?xml version="1.0" encoding="utf-8"?>
<!-- Generator: Adobe Illustrator 25.0.1, SVG Export Plug-In . SVG Version: 6.00 Build 0)  -->
<svg version="1.1" id="Capa_1" xmlns="http://www.w3.org/2000/svg" xmlns:xlink="http://www.w3.org/1999/xlink" x="0px" y="0px"
	 viewBox="0 0 1095.19 1203.06" style="enable-background:new 0 0 1095.19 1203.06;" xml:space="preserve">
<style type="text/css">
	.st0{fill:#103882;}
	.st1{fill:#FFFFFF;}
	.st2{fill:#BE3838;}
	.st3{display:none;opacity:0.5;fill:#DBE510;}
	.st4{display:none;fill:#BE3838;}
</style>
<polygon class="st0" points="375.81,0 0.14,626.43 751.48,626.43 "/>
<polygon class="st1" points="376.15,233.59 276.52,399.72 475.78,399.72 "/>
<polygon class="st1" points="522.8,477.59 230.03,477.59 91.55,690.5 627.13,642.49 "/>
<polygon class="st2" points="760.95,208.79 861.02,278.95 967.09,219.05 965.09,632.87 1094.38,633.2 1095.19,0 "/>
<path class="st0" d="M479.02,983.61c0,0-72.82-28.63-239.44-28.63c-112.14,0-239.44,48.23-239.44,48.23c0-94.24,0-166.37,0-260.61
	c0,0,119.49-48.04,238.75-48.04c138.13,0,240.12,29.68,240.12,29.68C479.02,818.48,479.02,889.37,479.02,983.61z"/>
<path class="st2" d="M1095.19,854.84c0,0-146.89,43.42-289.02,43.42c-126.42,0-289.02-54.23-289.02-54.23c0-41.6,0-68.03,0-109.63
	c0,0,175.62,55.85,289.02,55.85c171.09,0,289.02-48.82,289.02-48.82C1095.19,783.03,1095.19,813.24,1095.19,854.84z"/>
<path class="st2" d="M1095.19,1003.21c0,0-123.66,47.77-289.02,47.77c-126.42,0-289.02-58.85-289.02-58.85c0-41.6,0-58.14,0-99.74
	c0,0,153.04,52.24,289.02,52.24c139.15,0,289.02-40.77,289.02-40.77C1095.19,945.45,1095.19,961.61,1095.19,1003.21z"/>
<path class="st3" d="M761.14,960.94c0,0-68.76,30.12-149.68,30.12c-68.97,0-144.86-30.12-144.86-30.12s-72.02-30.65-152.71-30.65
	c-73.63,0-141.83,30.65-141.83,30.65c0-54.65,0-109.31,0-163.96c0,0,65.04-30.31,135.15-30.31c78.3,0,159.39,30.41,159.39,30.41
	s74.25,29.75,143.38,29.75c80.76,0,151.16-29.85,151.16-29.85C761.14,851.63,761.14,906.28,761.14,960.94z"/>
<path class="st2" d="M1095.04,1155.18c0,0-127.81,47.88-278.24,47.88c-128.2,0-269.28-47.88-269.28-47.88
	s-133.87-48.72-283.87-48.72C126.79,1106.46,0,1155.18,0,1155.18c0-86.87,0-20.91,0-107.79c0,0,120.91-48.17,251.24-48.17
	c145.56,0,296.28,48.33,296.28,48.33s138.03,47.29,266.53,47.29c150.12,0,280.99-47.44,280.99-47.44
	C1095.04,1134.27,1095.04,1068.31,1095.04,1155.18z"/>
<path class="st4" d="M1040.55,1166.43c0,0-113.98,42.7-248.13,42.7c-114.33,0-240.13-42.7-240.13-42.7s-119.38-43.45-253.14-43.45
	c-122.06,0-235.12,43.45-235.12,43.45c0-77.47,0-18.65,0-96.12c0,0,107.82-42.96,224.04-42.96c129.8,0,264.21,43.1,264.21,43.1
	s123.09,42.17,237.68,42.17c133.87,0,250.57-42.31,250.57-42.31C1040.55,1147.78,1040.55,1088.96,1040.55,1166.43z"/>
</svg>
