<?xml version="1.0" encoding="utf-8"?>
<!-- Generator: Adobe Illustrator 25.0.1, SVG Export Plug-In . SVG Version: 6.00 Build 0)  -->
<svg version="1.1" id="Capa_1" xmlns="http://www.w3.org/2000/svg" xmlns:xlink="http://www.w3.org/1999/xlink" x="0px" y="0px"
	 viewBox="0 0 480.1 432" style="enable-background:new 0 0 480.1 432;" xml:space="preserve">
<style type="text/css">
	.st0{fill:#5A6470;}
	.st1{fill:#FDBD40;}
	.st2{fill:#E9686A;}
	.st3{fill:#238892;}
	.st4{fill:#FFFFFF;}
</style>
<path class="st0" d="M472.1,432H8.1c-4.4,0-8-3.6-8-8s3.6-8,8-8h456V48c0-4.4,3.6-8,8-8s8,3.6,8,8v376
	C480.1,428.4,476.5,432,472.1,432z"/>
<path class="st1" d="M48.1,216h96v176h-96C48.1,392,48.1,216,48.1,216z"/>
<path class="st2" d="M192.1,120h96v272h-96L192.1,120L192.1,120z"/>
<path class="st3" d="M336.1,40h96v352h-96V40z"/>
<path class="st2" d="M168.1,16l26.3,26.3l-66.3,66.3l-18.3-18.3c-3.1-3.1-8.2-3.1-11.3,0l-96,96c-3.2,3.1-3.3,8.1-0.2,11.3
	s8.1,3.3,11.3,0.2c0.1-0.1,0.1-0.1,0.2-0.2l90.3-90.3l18.3,18.3c3.1,3.1,8.2,3.1,11.3,0l72-72L232.1,80l8-72L168.1,16z"/>
<g>
	<path class="st4" d="M80.1,368c-4.4,0-8-3.6-8-8v-16c0-4.4,3.6-8,8-8s8,3.6,8,8v16C88.1,364.4,84.5,368,80.1,368z"/>
	<path class="st4" d="M80.1,320c-4.4,0-8-3.6-8-8v-32c0-4.4,3.6-8,8-8s8,3.6,8,8v32C88.1,316.4,84.5,320,80.1,320z"/>
	<path class="st4" d="M224.1,368c-4.4,0-8-3.6-8-8v-16c0-4.4,3.6-8,8-8s8,3.6,8,8v16C232.1,364.4,228.5,368,224.1,368z"/>
	<path class="st4" d="M224.1,320c-4.4,0-8-3.6-8-8v-80c0-4.4,3.6-8,8-8s8,3.6,8,8v80C232.1,316.4,228.5,320,224.1,320z"/>
	<path class="st4" d="M368.1,368c-4.4,0-8-3.6-8-8v-16c0-4.4,3.6-8,8-8s8,3.6,8,8v16C376.1,364.4,372.5,368,368.1,368z"/>
	<path class="st4" d="M368.1,320c-4.4,0-8-3.6-8-8V152c0-4.4,3.6-8,8-8s8,3.6,8,8v160C376.1,316.4,372.5,320,368.1,320z"/>
</g>
<path d="M472.1,40c-4.4,0-8,3.6-8,8v368H8.1c-4.4,0-8,3.6-8,8s3.6,8,8,8h464c4.4,0,8-3.6,8-8V48C480.1,43.6,476.5,40,472.1,40z"/>
<path d="M48.1,208c-4.4,0-8,3.6-8,8v176c0,4.4,3.6,8,8,8h96c4.4,0,8-3.6,8-8V216c0-4.4-3.6-8-8-8H48.1z M136.1,384h-80V224h80V384z"
	/>
<path d="M192.1,112c-4.4,0-8,3.6-8,8v272c0,4.4,3.6,8,8,8h96c4.4,0,8-3.6,8-8V120c0-4.4-3.6-8-8-8H192.1z M280.1,384h-80V128h80V384
	z"/>
<path d="M336.1,400h96c4.4,0,8-3.6,8-8V40c0-4.4-3.6-8-8-8h-96c-4.4,0-8,3.6-8,8v352C328.1,396.4,331.7,400,336.1,400z M344.1,48h80
	v336h-80V48z"/>
<path d="M2.4,197.6c3.1,3.1,8.2,3.1,11.3,0l90.3-90.3l18.3,18.3c3.1,3.1,8.2,3.1,11.3,0l66.3-66.3l26.3,26.3c3.1,3.1,8.2,3.1,11.3,0
	c1.3-1.3,2.1-3,2.3-4.8l8-72c0.5-4.4-2.7-8.3-7.1-8.8c-0.6-0.1-1.1-0.1-1.7,0l-72,8c-4.4,0.5-7.6,4.4-7.1,8.8c0.2,1.8,1,3.5,2.3,4.8
	L188.8,48l-60.7,60.7l-18.3-18.3c-3.1-3.1-8.2-3.1-11.3,0l-96,96C-0.7,189.5-0.7,194.5,2.4,197.6L2.4,197.6z M231,17L226,62.6
	l-40.5-40.5L231,17z"/>
<path d="M80.1,368c4.4,0,8-3.6,8-8v-16c0-4.4-3.6-8-8-8s-8,3.6-8,8v16C72.1,364.4,75.7,368,80.1,368z"/>
<path d="M80.1,320c4.4,0,8-3.6,8-8v-32c0-4.4-3.6-8-8-8s-8,3.6-8,8v32C72.1,316.4,75.7,320,80.1,320z"/>
<path d="M224.1,368c4.4,0,8-3.6,8-8v-16c0-4.4-3.6-8-8-8s-8,3.6-8,8v16C216.1,364.4,219.7,368,224.1,368z"/>
<path d="M224.1,320c4.4,0,8-3.6,8-8v-80c0-4.4-3.6-8-8-8s-8,3.6-8,8v80C216.1,316.4,219.7,320,224.1,320z"/>
<path d="M368.1,336c-4.4,0-8,3.6-8,8v16c0,4.4,3.6,8,8,8s8-3.6,8-8v-16C376.1,339.6,372.5,336,368.1,336z"/>
<path d="M368.1,144c-4.4,0-8,3.6-8,8v160c0,4.4,3.6,8,8,8s8-3.6,8-8V152C376.1,147.6,372.5,144,368.1,144z"/>
</svg>
