<?xml version="1.0" encoding="utf-8"?>
<!-- Generator: Adobe Illustrator 25.0.1, SVG Export Plug-In . SVG Version: 6.00 Build 0)  -->
<svg version="1.1" id="Capa_1" xmlns="http://www.w3.org/2000/svg" xmlns:xlink="http://www.w3.org/1999/xlink" x="0px" y="0px"
	 viewBox="0 0 976.91 1209.13" style="enable-background:new 0 0 976.91 1209.13;" xml:space="preserve">
<style type="text/css">
	.st0{fill:#103882;}
	.st1{fill:#FFFFFF;}
	.st2{fill:#BE3838;}
	.st3{display:none;opacity:0.5;fill:#DBE510;}
</style>
<polygon class="st0" points="335.01,0 0,558.62 670.01,558.62 "/>
<polygon class="st1" points="335.31,208.31 246.47,356.46 424.16,356.46 "/>
<polygon class="st1" points="466.09,425.9 205,425.9 81.51,615.76 559.12,572.94 "/>
<polygon class="st2" points="678.31,186.19 767.55,248.76 862.14,195.34 860.36,564.37 976.77,564.66 976.37,0 "/>
<path class="st0" d="M427.04,877.15c0,0-64.94-25.53-213.52-25.53C113.52,851.61,0,894.62,0,894.62c0-84.04,0-148.36,0-232.41
	c0,0,106.55-42.84,212.91-42.84c123.17,0,214.13,26.47,214.13,26.47C427.04,729.89,427.04,793.11,427.04,877.15z"/>
<path class="st2" d="M976.52,762.31c0,0-130.99,38.72-257.73,38.72c-112.74,0-257.73-48.36-257.73-48.36c0-37.1,0-60.66,0-97.76
	c0,0,156.61,49.8,257.73,49.8c152.57,0,257.73-43.53,257.73-43.53C976.52,698.28,976.52,725.22,976.52,762.31z"/>
<path class="st2" d="M976.52,894.62c0,0-110.28,42.6-257.73,42.6c-112.74,0-257.73-52.48-257.73-52.48c0-37.1,0-51.85,0-88.95
	c0,0,136.47,46.59,257.73,46.59c124.09,0,257.73-36.36,257.73-36.36C976.52,843.12,976.52,857.53,976.52,894.62z"/>
<path class="st3" d="M698.76,960.94c0,0-68.76,30.12-149.68,30.12c-68.97,0-144.86-30.12-144.86-30.12s-72.02-30.65-152.71-30.65
	c-73.63,0-141.83,30.65-141.83,30.65c0-54.65,0-109.31,0-163.96c0,0,65.04-30.31,135.15-30.31c78.3,0,159.39,30.41,159.39,30.41
	s74.25,29.75,143.38,29.75c80.76,0,151.16-29.85,151.16-29.85C698.76,851.63,698.76,906.28,698.76,960.94z"/>
<path class="st2" d="M976.52,1030.2c0,0-113.98,42.7-248.13,42.7c-114.33,0-240.13-42.7-240.13-42.7s-119.38-43.45-253.14-43.45
	c-122.06,0-235.12,43.45-235.12,43.45c0-77.47,0-18.65,0-96.12c0,0,107.82-42.96,224.04-42.96c129.8,0,264.21,43.1,264.21,43.1
	s123.09,42.17,237.68,42.17c133.87,0,250.57-42.31,250.57-42.31C976.52,1011.55,976.52,952.73,976.52,1030.2z"/>
<path class="st2" d="M976.52,1166.43c0,0-113.98,42.7-248.13,42.7c-114.33,0-240.13-42.7-240.13-42.7s-119.38-43.45-253.14-43.45
	C113.06,1122.98,0,1166.43,0,1166.43c0-77.47,0-18.65,0-96.12c0,0,107.82-42.96,224.04-42.96c129.8,0,264.21,43.1,264.21,43.1
	s123.09,42.17,237.68,42.17c133.87,0,250.57-42.31,250.57-42.31C976.52,1147.78,976.52,1088.96,976.52,1166.43z"/>
</svg>
