<?xml version="1.0" encoding="utf-8"?>
<!-- Generator: Adobe Illustrator 25.0.1, SVG Export Plug-In . SVG Version: 6.00 Build 0)  -->
<svg version="1.1" id="Capa_1" xmlns="http://www.w3.org/2000/svg" xmlns:xlink="http://www.w3.org/1999/xlink" x="0px" y="0px"
	 viewBox="0 0 460.2 463.5" style="enable-background:new 0 0 460.2 463.5;" xml:space="preserve">
<style type="text/css">
	.st0{fill:#FFAC96;}
	.st1{fill:#FFBCAB;}
	.st2{fill:#006DF0;}
	.st3{fill:#D80027;}
	.st4{fill:#BD0022;}
	.st5{fill:#F1F2F2;}
</style>
<g id="healthcare-covid19-coronavirus-hand-hearth">
	<path class="st0" d="M99.8,217.7L63.5,113.3C60.3,100.6,47.9,92.5,35,94.7c-13,2.8-21.3,15.5-18.5,28.5c0.1,0.4,0.2,0.8,0.3,1.1
		l37.3,115.1L99.8,217.7z"/>
	<path class="st0" d="M360.4,217.7l36.2-104.4c3.2-12.7,15.6-20.8,28.5-18.6c13,2.8,21.3,15.5,18.5,28.5c-0.1,0.4-0.2,0.8-0.3,1.1
		l-37.3,115.1L360.4,217.7z"/>
	<path class="st1" d="M174.5,260.9l-70.7-41.5c-10.1-5.8-22.9-3.5-30.4,5.4l-25.8-79.7c-3.2-12.7-15.6-20.8-28.5-18.6
		c-13,2.8-21.3,15.5-18.5,28.5c0.1,0.4,0.2,0.8,0.3,1.1l34.8,129.8c1.6,6.1,5,11.5,9.7,15.7L99.4,350c6.8,6.1,10.7,14.8,10.7,23.9
		v25.6h96v-83.3C206.1,293.4,194,272.4,174.5,260.9z"/>
	<path class="st1" d="M441.1,126.7c-12.9-2.2-25.3,5.9-28.5,18.6l-25.8,79.7c-7.5-9-20.3-11.3-30.4-5.4l-70.7,41.5
		c-19.6,11.5-31.6,32.5-31.6,55.2v83.3h96v-25.6c0-9.1,3.9-17.8,10.7-23.9l54.1-48.1c4.7-4.1,8.1-9.6,9.7-15.7l34.8-129.8
		c3.4-12.8-4.3-26-17.1-29.4C441.9,126.9,441.5,126.8,441.1,126.7L441.1,126.7z"/>
	<path class="st2" d="M246.1,399.5v64h112v-64h-8h-96H246.1z"/>
	<path class="st2" d="M214.1,399.5h-8h-96h-8v64h112V399.5z"/>
	<path class="st3" d="M337.6,124l-5.7,5.7L230.1,231.5L128.2,129.7l-5.7-5.7c-28.7-27.5-29.7-73.1-2.1-101.8S193.5-7.5,222.2,20
		c0.7,0.7,1.5,1.4,2.2,2.2l5.7,5.7l5.7-5.7C263.3-6.5,308.8-7.5,337.6,20s29.7,73.1,2.2,101.8C339.1,122.5,338.3,123.3,337.6,124z"
		/>
	<path class="st4" d="M337.6,22.2C322.2,6.6,300.4-1,278.7,1.6c39.5,4.4,68,39.9,63.6,79.4c-1.8,16.2-9.1,31.4-20.6,43l-5.7,5.7
		l-93.8,93.8l8,8l101.8-101.8l5.7-5.7C365.7,95.9,365.7,50.3,337.6,22.2z"/>
	<path class="st5" d="M246.1,151.5v-32h32v-32h-32v-32h-32v32h-32v32h32v32H246.1z"/>
	<g>
		<path class="st0" d="M380.4,245.1L327,274.7c-3.2,1.8-4.4,5.8-2.7,9.1c1.7,3.4,5.9,4.8,9.3,3.1c0.1-0.1,0.3-0.1,0.4-0.2l46.5-25.6
			c10-5.8,14.5-18,10.6-28.9C389.1,237.6,385.4,242.2,380.4,245.1L380.4,245.1z"/>
		<path class="st0" d="M79.7,245.1l53.5,29.6c3.2,1.8,4.4,5.8,2.7,9.1c-1.7,3.4-5.9,4.8-9.3,3.1c-0.1-0.1-0.3-0.1-0.4-0.2
			l-46.5-25.6c-10-5.8-14.5-18-10.6-28.9C71,237.6,74.8,242.2,79.7,245.1L79.7,245.1z"/>
	</g>
</g>
</svg>
