<?xml version="1.0" encoding="utf-8"?>
<!-- Generator: Adobe Illustrator 25.0.1, SVG Export Plug-In . SVG Version: 6.00 Build 0)  -->
<svg version="1.1" id="Layer_5" xmlns="http://www.w3.org/2000/svg" xmlns:xlink="http://www.w3.org/1999/xlink" x="0px" y="0px"
	 viewBox="0 0 496 496" style="enable-background:new 0 0 496 496;" xml:space="preserve">
<style type="text/css">
	.st0{fill:#656D78;}
	.st1{fill:#CF9E76;}
	.st2{fill:#FCD770;}
	.st3{fill:#FFC729;}
	.st4{fill:#B4DD7F;}
	.st5{fill:#AAB2BD;}
	.st6{fill:#FF826E;}
	.st7{fill:#F0D0B4;}
</style>
<g>
	<g>
		<g>
			<path class="st0" d="M64,96c-7.1,0-13.6,3.1-17.8,8.1l-0.1-0.1C42.2,95.3,40,85.7,40,75.9C40,38.4,70.4,8,107.9,8h40.2
				c18.8,0,35.8,7.6,48,19.9c12.3,12.2,19.9,29.2,19.9,48c0,9.8-2.2,19.4-6.1,28.1l-0.1,0.1c-0.2-0.4-0.6-0.7-0.9-1
				c-4.3-4.3-10.3-7-17-7h-8c0-4.9,0-8,0-8c0-24-24-32-24-32c-5.1,5.1-12.1,8-19.3,8H88c-9.8,4.9-16,15-16,25.9V96H64z"/>
		</g>
		<g>
			<path class="st0" d="M468.1,148.3c2.6,7.8,3.9,15.8,3.9,24c0,20.7-8.4,40.4-23.1,54.6c-8.7-7.7-18.6-14.1-29.5-18.8
				c-8.6-3.8-17.8-6.6-27.4-8.2l-3.8-19.3l-0.2-0.5c21.1-8,36-28.4,36-52.2c0-17.4,0-40,0-40l-0.2-8h-20.5c-23.4,0-46.4-5.5-67.3-16
				c-14.3,4.8-24,18.2-24,33.3v32.4c0,23.5,15,43.5,35.8,51L344,200c-9.6,1.6-18.8,4.4-27.4,8.2c-5.5,2.5-10.8,5.3-15.8,8.5
				c-4.8,3.1-9.4,6.6-13.7,10.3c-7.4-7.1-13.1-15.6-17-24.9c-4-9.3-6.1-19.4-6.1-29.8c0-8.2,1.3-16.2,3.9-24l7.6-22.8
				c3-9,4.5-18.3,4.5-27.8V96c0-24.3,9.8-46.3,25.8-62.2S343.7,8,368,8c48.6,0,88,39.4,88,88v1.7c0,9.5,1.5,18.9,4.5,27.8
				L468.1,148.3z"/>
		</g>
		<g>
			<path class="st1" d="M138.8,424c9,14.4,37.9,33.1,61.2,46.6V488h-72H56v-64H138.8z"/>
		</g>
		<g>
			<path class="st2" d="M138.8,424H56v-38.2c9.4,3.9,19.8,6.2,30.6,6.2h51.7c-1.4,10.8-2.3,19.4-2.3,24
				C136,418.5,137,421.1,138.8,424z"/>
		</g>
		<g>
			<path class="st2" d="M56,312H8c0.3-27.5,10.4-53.1,27.2-73c14-16.5,32.6-29,53.9-35.5L96,272l32-32l31.2,31.2
				c-0.6,1-0.9,2.1-1.1,3.3c-2.7,14.6-7.8,42.2-12.3,69.6c-0.6-0.1-1.2-0.1-1.8-0.1H88C70.3,344,56,329.7,56,312L56,312z"/>
		</g>
		<g>
			<path class="st2" d="M160.2,269.4l6.6-65.8c10.2,3.1,19.7,7.6,28.3,13.1c12.8,8.3,23.8,19,32.4,31.4c-4.8,3-9.8,5.5-15,7.7
				c-13.1,5.4-27.3,8.3-41.8,8.3C166.4,264,162.6,266.1,160.2,269.4L160.2,269.4z"/>
		</g>
		<g>
			<path class="st3" d="M159.2,271.2L128,240l24-40c5.1,0.9,10.1,2,14.9,3.5l-6.6,65.8h0.1C159.8,269.9,159.4,270.6,159.2,271.2
				L159.2,271.2z"/>
		</g>
		<g>
			<path class="st3" d="M104,200l24,40l-32,32l-6.9-68.5C94,202,99,200.9,104,200L104,200z"/>
		</g>
		<g>
			<path class="st4" d="M446.6,431.4L456,488H248c10.7,0,21.4-2.6,30.8-7.8c26.9-14.6,81.2-46.2,81.2-64.2c0-4.6-0.9-13.2-2.3-24
				h51.7c7.1,0,14-1,20.6-2.7l0.6,2.4C438.6,403.5,444.2,417,446.6,431.4z"/>
		</g>
		<g>
			<path class="st4" d="M337.9,274.5c-1.1-6.1-6.4-10.5-12.6-10.5c-0.8,0-1.7,0-2.5-0.1c2.1-5.2,3.8-10.5,5.2-15.9h80
				c5.2,21,16.1,40.1,31.4,55.4l0.6,0.6v8c0,17.7-14.3,32-32,32h-56c-0.6,0-1.2,0-1.8,0.1C345.7,316.7,340.6,289.1,337.9,274.5
				L337.9,274.5z"/>
		</g>
		<g>
			<path class="st5" d="M322.8,263.9c0.8,0.1,1.7,0.1,2.5,0.1c6.2,0,11.5,4.4,12.6,10.5c2.7,14.6,7.8,42.2,12.3,69.6
				C337.8,345,328,355.3,328,368c0,6.6,2.7,12.6,7,17c4.3,4.3,10.3,7,17,7h5.7c1.4,10.8,2.3,19.4,2.3,24c0,18.1-54.3,49.7-81.2,64.2
				c-9.4,5.1-20.1,7.8-30.8,7.8s-21.4-2.6-30.8-7.8c-5-2.7-10.9-6-17.2-9.6c-23.3-13.5-52.2-32.2-61.2-46.6c-1.8-2.9-2.8-5.5-2.8-8
				c0-4.6,0.9-13.2,2.3-24h5.7c6.6,0,12.6-2.7,17-7c4.3-4.3,7-10.3,7-17c0-12.7-9.8-23-22.2-23.9c4.6-27.4,9.6-55,12.3-69.6
				c0.2-1.2,0.6-2.2,1.1-3.3c0.2-0.6,0.6-1.3,1.1-1.8c2.2-3.3,6.1-5.4,10.4-5.4c14.6,0,28.7-2.9,41.8-8.3c5.2-2.2,10.2-4.7,15-7.7
				c7.4-4.5,14.2-9.8,20.4-16c6.2,6.2,13,11.5,20.4,16c4.8,3,9.8,5.5,15,7.7C295.8,260.8,309.1,263.7,322.8,263.9L322.8,263.9z"/>
		</g>
		<g>
			<path class="st6" d="M296,352v32h-32v32h-32v-32h-32v-32h32v-32h32v32H296z"/>
		</g>
		<g>
			<path class="st7" d="M209.8,104.1c3.8,4.2,6.2,9.8,6.2,15.9c0,13.3-10.7,24-24,24h-10.3c1.5-5,2.3-10.5,2.3-16
				c0-10.9,0-23.8,0-32h8c6.6,0,12.6,2.7,17,7C209.3,103.4,209.6,103.7,209.8,104.1z"/>
		</g>
		<g>
			<path class="st7" d="M74,144H64c-6.6,0-12.6-2.7-17-7s-7-10.3-7-17c0-6.2,2.3-11.7,6.2-15.9c4.2-5,10.7-8.1,17.8-8.1h8v33.7
				C72,134.6,72.6,139.4,74,144z"/>
		</g>
		<g>
			<path class="st7" d="M184,96v32c0,5.5-0.8,11-2.3,16c-5,16.6-17.4,30.1-33.6,36.2c-6.3,2.5-13.1,3.8-20.3,3.8h-1.4
				c-6.5,0-12.7-1.1-18.5-3.3C91.4,174.8,78.6,161,74,144c-1.4-4.6-2-9.4-2-14.3V96v-6.1c0-11,6.2-21,16-25.9h52.7
				c7.2,0,14.2-2.9,19.3-8c0,0,24,8,24,32V96z"/>
		</g>
		<g>
			<path class="st7" d="M107.8,180.7c5.8,2.2,12,3.3,18.5,3.3h1.4c7.2,0,14-1.3,20.3-3.8L152,200l-24,40l-24-40L107.8,180.7z"/>
		</g>
		<g>
			<path class="st7" d="M145.8,344.1C158.2,345,168,355.3,168,368c0,6.6-2.7,12.6-7,17c-4.3,4.3-10.3,7-17,7h-5.7H86.6
				c-10.9,0-21.2-2.2-30.6-6.2v-0.1c-28.2-11.9-48-39.8-48-72.4c0-0.5,0-0.9,0-1.4h48c0,17.7,14.3,32,32,32h56
				C144.6,344,145.2,344,145.8,344.1L145.8,344.1z"/>
		</g>
		<g>
			<path class="st7" d="M419.4,208.2L408,248h-80l-11.4-39.8c8.6-3.8,17.8-6.6,27.4-8.2l3.8-19.3c5.8,2.2,12,3.3,18.5,3.3h1.4
				c7.1,0,14-1.3,20.2-3.8l0.2,0.5L392,200C401.6,201.6,410.8,204.4,419.4,208.2z"/>
		</g>
		<g>
			<path class="st7" d="M316.6,208.2L328,248c-1.4,5.4-3.1,10.7-5.2,15.9c-13.7-0.2-27-3.1-39.4-8.2c-5.2-2.2-10.2-4.7-15-7.7
				c5.4-7.8,11.6-14.7,18.7-21c4.2-3.7,8.9-7.2,13.7-10.3C305.8,213.4,311.1,210.6,316.6,208.2L316.6,208.2z"/>
		</g>
		<g>
			<path class="st7" d="M488,313.4c0,36.3-24.6,66.9-58.1,75.9c-6.6,1.8-13.4,2.7-20.6,2.7h-51.7H352c-6.6,0-12.6-2.7-17-7
				s-7-10.3-7-17c0-12.7,9.8-23,22.2-23.9c0.6-0.1,1.2-0.1,1.8-0.1h56c17.7,0,32-14.3,32-32v-8l-0.6-0.6
				C424.1,288.1,413.2,269,408,248l11.4-39.8c10.9,4.7,20.8,11.1,29.5,18.8c4.2,3.7,8.2,7.8,11.9,12.1
				C477.8,259.2,488,285.3,488,313.4L488,313.4z"/>
		</g>
		<g>
			<path class="st7" d="M347.8,180.7c-20.9-7.5-35.8-27.5-35.8-51V97.3c0-15.1,9.7-28.5,24-33.3c20.9,10.5,43.9,16,67.3,16h20.5
				l0.2,8v40c0,23.8-14.9,44.2-36,52.2c-6.2,2.5-13.1,3.8-20.2,3.8h-1.4C359.8,184,353.6,182.9,347.8,180.7z"/>
		</g>
	</g>
	<g>
		<path d="M496,313.3c0-33.7-13.5-64.4-35.8-86.8c12.7-15.1,19.8-34.4,19.8-54.2c0-9.1-1.5-18-4.3-26.6l-7.6-22.7
			c-2.7-8.2-4.1-16.7-4.1-25.3V96c0-52.9-43.1-96-96-96s-96,43.1-96,96v1.7c0,8.6-1.4,17.1-4.1,25.3l-7.6,22.7
			c-2.9,8.6-4.3,17.5-4.3,26.6c0,19.8,7.2,39.2,19.8,54.3c-3.3,3.3-6.3,6.9-9.3,10.6c-4.5-3.2-8.9-6.8-12.9-10.8l-5.7-5.7l-5.7,5.7
			c-4,4-8.4,7.6-12.9,10.8c-17.8-22.6-42.4-38-70.6-44l-1.7-8.3c13.6-7,24.3-18.6,30.1-32.8h4.7c17.6,0,32-14.4,32-32
			c0-6.3-1.9-12.2-5.1-17.1c3.3-8.6,5.1-17.7,5.1-27C224,34,190,0,148.1,0h-40.2C66,0,32,34,32,75.9c0,9.3,1.8,18.3,5.1,27
			c-3.2,5-5.1,10.8-5.1,17.1c0,17.6,14.4,32,32,32h4.2c5.6,14.6,16.6,26.6,30.5,33.5l-1.5,7.7C40.6,205.2,0,254.9,0,313.4
			c0,33.9,19.6,63.2,48,77.4V496h160v-11.7c1.8,1,3.6,2,5.4,3C224,493,235.9,496,248,496h217.4l-11-65.9
			c-2.1-12.7-6.7-25.1-13.2-36.3C473.3,381.1,496,349.9,496,313.3L496,313.3z M275.5,150.8l7.6-22.7c3.3-9.8,4.9-20,4.9-30.4V96
			c0-44.1,35.9-80,80-80s80,35.9,80,80v1.7c0,10.3,1.7,20.6,4.9,30.4l7.6,22.7c2.3,7,3.5,14.2,3.5,21.5c0,15.9-5.7,31.5-15.8,43.6
			c-14.2-10.9-30.9-18.9-49.4-22.8l-1.7-8.3c20.7-10.6,34.9-32.1,34.9-56.9V88l-0.5-16h-28.2c-22,0-44-5.2-63.7-15.1l-3-1.5
			l-3.2,1.1C315.8,62.3,304,78.7,304,97.3v32.4c0,24.5,14.2,45.6,34.7,55.8l-1.5,7.7c-18.2,3.9-34.9,11.8-49.3,22.9
			c-10.2-12.2-15.9-27.7-15.9-43.7C272,165,273.2,157.8,275.5,150.8L275.5,150.8z M357,336c-4.3-25.2-8.8-49.9-11.2-62.9
			c-1.3-7-6.1-12.6-12.3-15.3c0.2-0.6,0.3-1.2,0.5-1.8h68c5.8,19.2,16.1,36.8,30,51.3v4.7c0,13.2-10.8,24-24,24H357z M402,240H334
			l-7.7-27.1c6.1-2.2,12.4-4,19-5l5.5-0.9l3.2-16.2c4,0.8,8.1,1.2,12.3,1.2h1.4c4.9,0,9.6-0.6,14.2-1.6l3.3,16.6l5.5,0.9
			c6.6,1.1,12.9,2.8,19,5L402,240z M367.7,176h-1.4c-25.5,0-46.3-20.8-46.3-46.3V97.3c0-10.6,6.2-20.2,15.6-24.6
			c21,10,44.3,15.3,67.6,15.3H416l0,40C416,154.5,394.3,176,367.7,176z M311.6,219.6l8.1,28.5c-0.7,2.6-1.7,5-2.5,7.5
			c-12.9-1-25.4-4.5-36.8-10.1C289.1,234.8,299.7,226.1,311.6,219.6L311.6,219.6z M215.6,245.5c-13.8,6.8-29,10.5-44.9,10.5
			c-0.4,0-0.7,0.1-1.1,0.1l4.2-41.6C190,221.2,204.3,231.7,215.6,245.5L215.6,245.5z M155.9,209c0.8,0.2,1.5,0.3,2.3,0.5l-4.5,44.9
			l-15.6-15.6L155.9,209z M192,136h-0.6c0.3-2.6,0.6-5.3,0.6-8v-24c8.8,0,16,7.2,16,16S200.8,136,192,136L192,136z M64,136
			c-8.8,0-16-7.2-16-16s7.2-16,16-16v25.7c0,2.1,0.1,4.2,0.3,6.3H64z M80,129.7V89.9c0-8,4.4-15.2,11.6-18.7l-7.2-14.3
			c-12,6-19.6,17.8-20.3,31.2H64c-5,0-9.7,1.3-13.9,3.3c-1.3-5-2.1-10.2-2.1-15.4c0-33,26.9-59.9,59.9-59.9h40.2
			c33,0,59.9,26.9,59.9,59.9c0,5.3-0.8,10.4-2.1,15.4c-4.2-2-8.9-3.3-13.9-3.3c0-29.4-28.3-39.2-29.5-39.6l-5.1,15.2
			c0.8,0.3,18.6,6.6,18.6,24.4v40c0,26.5-21.7,48-48.3,48h-1.4C100.8,176,80,155.2,80,129.7L80,129.7z M126.3,192h1.4
			c4.9,0,9.6-0.6,14.2-1.6l1.6,8.2L128,224.5l-15.6-25.9l1.6-7.8C118,191.6,122.1,192,126.3,192z M100.1,209l17.9,29.8l-15.6,15.6
			l-4.5-44.9C98.5,209.3,99.3,209.2,100.1,209z M82.2,214.5l7.5,75l38.3-38.3l22.1,22.1c-2.4,13.2-6.9,37.7-11.1,62.6H88
			c-13.2,0-24-10.8-24-24v-40H48v32H16.4C19.9,263.7,45.6,229.5,82.2,214.5z M16.3,320h32.5c3.7,18.2,19.9,32,39.2,32h56
			c8.8,0,16,7.2,16,16c0,8.8-7.2,16-16,16H86.6C49.9,384,19.7,355.9,16.3,320z M86.6,400h42.6c-0.9,7.3-1.3,12.6-1.3,16H64v-19.1
			C71.2,398.9,78.8,400,86.6,400z M192,480h-55.5c1.4-9.9,6-19.2,13.1-26.3l-11.3-11.3c-4.1,4.1-7.6,8.8-10.3,13.8
			c-2.8-5-6.2-9.7-10.3-13.8l-11.3,11.3c7.1,7.1,11.7,16.5,13.1,26.3H64v-48h70.7c7.5,9.5,23.4,23.3,57.3,43.2V480z M221,473.2
			c-60.9-33-77-51.8-77-57.2c0-2.2,0.3-6.9,1.4-16.1c17-0.8,30.6-14.7,30.6-31.9c0-13.8-8.8-25.5-21.1-30c4.2-24.8,8.6-49.1,11-62.1
			c0.4-2.3,2.4-4,4.8-4c28.7,0,55.9-10.3,77.3-29c21.4,18.8,48.5,29,77.3,29c2.4,0,4.4,1.7,4.8,4c2.4,12.9,6.8,37.2,11,62.1
			c-12.3,4.5-21.1,16.2-21.1,30c0,17.2,13.6,31.1,30.6,31.9c1.1,9.3,1.4,13.9,1.4,16.1c0,5.4-16.1,24.2-77,57.2
			C258.6,482.1,237.4,482.1,221,473.2L221,473.2z M438.7,432.8l7.9,47.2H295.7c72.2-40.9,72.3-58.1,72.3-64c0-3.4-0.4-8.7-1.3-16
			h42.6c5.5,0,10.8-0.6,16-1.5C432,408.9,436.7,420.6,438.7,432.8L438.7,432.8z M409.4,384H352c-8.8,0-16-7.2-16-16
			c0-8.8,7.2-16,16-16h56c22.1,0,40-17.9,40-40v-11.3l-3-3c-13.7-13.7-23.6-30.8-28.7-49.6l8.2-28.6c33.5,18.3,55.5,53.7,55.5,93.9
			C480,352.3,448.3,384,409.4,384L409.4,384z"/>
		<path d="M112,88h16c0-29.4-28.3-39.2-29.5-39.6l-5.1,15.2C94.2,63.8,112,70.2,112,88z"/>
		<path d="M144,88h16c0-29.4-28.3-39.2-29.5-39.6l-5.1,15.2C126.2,63.8,144,70.2,144,88z"/>
		<path d="M158.3,141.3l0.8-1.7l-14.3-7.2l-0.8,1.7c-3,6.1-9.2,9.9-16,9.9c-6.8,0-13-3.8-16-9.9l-0.8-1.7l-14.3,7.2l0.8,1.7
			c5.8,11.6,17.4,18.7,30.3,18.7C140.9,160,152.5,152.8,158.3,141.3z"/>
		<circle cx="104" cy="104" r="8"/>
		<circle cx="152" cy="104" r="8"/>
		<path d="M384,134.1c-3,6.1-9.2,9.9-16,9.9s-13-3.8-16-9.9l-0.8-1.7l-14.3,7.2l0.8,1.7c5.8,11.6,17.4,18.7,30.3,18.7
			s24.5-7.2,30.3-18.7l0.8-1.7l-14.3-7.2L384,134.1z"/>
		<circle cx="344" cy="104" r="8"/>
		<circle cx="392" cy="104" r="8"/>
		<path d="M272,424v-32h32v-48h-32v-32h-48v32h-32v48h32v32H272z M208,376v-16h32v-32h16v32h32v16h-32v32h-16v-32H208z"/>
	</g>
</g>
</svg>
