<?xml version="1.0" encoding="utf-8"?>
<!-- Generator: Adobe Illustrator 23.0.2, SVG Export Plug-In . SVG Version: 6.00 Build 0)  -->
<svg version="1.1" xmlns="http://www.w3.org/2000/svg" xmlns:xlink="http://www.w3.org/1999/xlink" x="0px" y="0px"
	 viewBox="0 0 353 353" style="enable-background:new 0 0 353 353;" xml:space="preserve">
<style type="text/css">
	.st0{enable-background:new    ;}
	.st1{fill-rule:evenodd;clip-rule:evenodd;fill:#050006;}
</style>
<g id="Rect치ngulo_redondeado_1_1_" class="st0">
	<g id="Rect치ngulo_redondeado_1">
		<g>
			<path class="st1" d="M304.99,53.67l-6.36-6.36c-3.91-3.91-10.24-3.91-14.14,0L48.31,283.48c-3.91,3.91-3.91,10.24,0,14.14
				l6.36,6.36c3.91,3.91,10.24,3.91,14.14,0L304.99,67.81C308.89,63.91,308.89,57.58,304.99,53.67z"/>
		</g>
	</g>
</g>
<g id="Rect치ngulo_redondeado_1_copia_1_" class="st0">
	<g id="Rect치ngulo_redondeado_1_copia">
		<g>
			<path class="st1" d="M304.99,284.19L68.81,48.01c-3.91-3.91-10.24-3.91-14.14,0l-6.36,6.36c-3.91,3.91-3.91,10.24,0,14.14
				l236.17,236.17c3.91,3.91,10.24,3.91,14.14,0l6.36-6.36C308.89,294.42,308.89,288.09,304.99,284.19z"/>
		</g>
	</g>
</g>
</svg>
